{
  "accessors": [
    {
      "bufferView": 2,
      "componentType": 5126,
      "count": 620,
      "max": [
        177.7487030029297,
        52.10961151123047,
        36.61460876464844
      ],
      "min": [
        -177.54014587402344,
        0.015350788831710815,
        -36.61460876464844
      ],
      "type": "VEC3"
    },
    {
      "bufferView": 2,
      "byteOffset": 7440,
      "componentType": 5126,
      "count": 620,
      "max": [
        0.9999982118606567,
        0.9999985098838806,
        0.9999982714653015
      ],
      "min": [
        -0.9999982118606567,
        -0.9999984502792358,
        -0.9999982714653015
      ],
      "type": "VEC3"
    },
    {
      "bufferView": 3,
      "componentType": 5126,
      "count": 620,
      "max": [
        0.7804887890815735,
        0.9999990463256836,
        0.25882694125175476,
        1.0
      ],
      "min": [
        -0.779474139213562,
        -0.999985933303833,
        -0.9999992847442627,
        1.0
      ],
      "type": "VEC4"
    },
    {
      "bufferView": 1,
      "componentType": 5126,
      "count": 620,
      "max": [
        0.9750242829322815,
        0.9920615553855896
      ],
      "min": [
        0.012996852397918701,
        0.0136985182762146
      ],
      "type": "VEC2"
    },
    {
      "bufferView": 0,
      "componentType": 5125,
      "count": 2076,
      "type": "SCALAR"
    },
    {
      "bufferView": 2,
      "byteOffset": 14880,
      "componentType": 5126,
      "count": 1554,
      "max": [
        150.96861267089844,
        344.8946838378906,
        18.52542495727539
      ],
      "min": [
        -150.9024200439453,
        22.950531005859375,
        -18.52542495727539
      ],
      "type": "VEC3"
    },
    {
      "bufferView": 2,
      "byteOffset": 33528,
      "componentType": 5126,
      "count": 1554,
      "max": [
        1.0,
        1.0,
        1.0
      ],
      "min": [
        -1.0,
        -1.0,
        -1.0
      ],
      "type": "VEC3"
    },
    {
      "bufferView": 3,
      "byteOffset": 9920,
      "componentType": 5126,
      "count": 1554,
      "max": [
        0.9999925494194031,
        1.0,
        1.0,
        1.0
      ],
      "min": [
        -0.9999973177909851,
        -1.0,
        -1.0,
        1.0
      ],
      "type": "VEC4"
    },
    {
      "bufferView": 1,
      "byteOffset": 4960,
      "componentType": 5126,
      "count": 1554,
      "max": [
        1.0,
        0.7807806134223938
      ],
      "min": [
        0.0,
        0.0
      ],
      "type": "VEC2"
    },
    {
      "bufferView": 0,
      "byteOffset": 8304,
      "componentType": 5125,
      "count": 3516,
      "type": "SCALAR"
    }
  ],
  "asset": {
    "extras": {
      "author": "assetfactory (https://sketchfab.com/assetfactory)",
      "license": "SKETCHFAB Standard (https://sketchfab.com/licenses)",
      "source": "https://sketchfab.com/3d-models/construction-steel-beam-2-c731213b6a8c44eea8041705be669d5a",
      "title": "Construction steel beam 2"
    },
    "generator": "Sketchfab-16.33.0",
    "version": "2.0"
  },
  "bufferViews": [
    {
      "buffer": 0,
      "byteLength": 22368,
      "name": "floatBufferViews",
      "target": 34963
    },
    {
      "buffer": 0,
      "byteLength": 17392,
      "byteOffset": 22368,
      "byteStride": 8,
      "name": "floatBufferViews",
      "target": 34962
    },
    {
      "buffer": 0,
      "byteLength": 52176,
      "byteOffset": 39760,
      "byteStride": 12,
      "name": "floatBufferViews",
      "target": 34962
    },
    {
      "buffer": 0,
      "byteLength": 34784,
      "byteOffset": 91936,
      "byteStride": 16,
      "name": "floatBufferViews",
      "target": 34962
    }
  ],
  "buffers": [
    {
      "byteLength": 126720,
      "uri": "scene.bin"
    }
  ],
  "images": [
    {
      "uri": "textures/Part_02_baseColor.jpeg"
    },
    {
      "uri": "textures/Part_02_metallicRoughness.png"
    },
    {
      "uri": "textures/Part_02_normal.png"
    },
    {
      "uri": "textures/Part_01_baseColor.jpeg"
    },
    {
      "uri": "textures/Part_01_metallicRoughness.png"
    },
    {
      "uri": "textures/Part_01_normal.png"
    }
  ],
  "materials": [
    {
      "doubleSided": true,
      "name": "Part_02",
      "normalTexture": {
        "index": 2
      },
      "occlusionTexture": {
        "index": 1
      },
      "pbrMetallicRoughness": {
        "baseColorTexture": {
          "index": 0
        },
        "metallicRoughnessTexture": {
          "index": 1
        }
      }
    },
    {
      "doubleSided": true,
      "name": "Part_01",
      "normalTexture": {
        "index": 5
      },
      "occlusionTexture": {
        "index": 4
      },
      "pbrMetallicRoughness": {
        "baseColorTexture": {
          "index": 3
        },
        "metallicRoughnessTexture": {
          "index": 4
        }
      }
    }
  ],
  "meshes": [
    {
      "name": "Part_02_geo_Part_02_0",
      "primitives": [
        {
          "attributes": {
            "NORMAL": 1,
            "POSITION": 0,
            "TANGENT": 2,
            "TEXCOORD_0": 3
          },
          "indices": 4,
          "material": 0,
          "mode": 4
        }
      ]
    },
    {
      "name": "Part_01_geo_Part_01_0",
      "primitives": [
        {
          "attributes": {
            "NORMAL": 6,
            "POSITION": 5,
            "TANGENT": 7,
            "TEXCOORD_0": 8
          },
          "indices": 9,
          "material": 1,
          "mode": 4
        }
      ]
    }
  ],
  "nodes": [
    {
      "children": [
        1
      ],
      "matrix": [
        1.0,
        0.0,
        0.0,
        0.0,
        0.0,
        2.220446049250313e-16,
        -1.0,
        0.0,
        0.0,
        1.0,
        2.220446049250313e-16,
        0.0,
        0.0,
        0.0,
        0.0,
        1.0
      ],
      "name": "Sketchfab_model"
    },
    {
      "children": [
        2
      ],
      "matrix": [
        0.009999999776482582,
        0.0,
        0.0,
        0.0,
        0.0,
        0.0,
        0.009999999776482582,
        0.0,
        0.0,
        -0.009999999776482582,
        0.0,
        0.0,
        0.0,
        0.0,
        0.0,
        1.0
      ],
      "name": "cstr_Steel_beam_set_variations_02_Lod_03.fbx"
    },
    {
      "children": [
        3
      ],
      "name": "RootNode"
    },
    {
      "children": [
        4,
        6
      ],
      "name": "Steel_beam_set_model_variations_02"
    },
    {
      "children": [
        5
      ],
      "name": "Part_02_geo"
    },
    {
      "mesh": 0,
      "name": "Part_02_geo_Part_02_0"
    },
    {
      "children": [
        7
      ],
      "name": "Part_01_geo"
    },
    {
      "mesh": 1,
      "name": "Part_01_geo_Part_01_0"
    }
  ],
  "samplers": [
    {
      "magFilter": 9729,
      "minFilter": 9987,
      "wrapS": 10497,
      "wrapT": 10497
    }
  ],
  "scene": 0,
  "scenes": [
    {
      "name": "Sketchfab_Scene",
      "nodes": [
        0
      ]
    }
  ],
  "textures": [
    {
      "sampler": 0,
      "source": 0
    },
    {
      "sampler": 0,
      "source": 1
    },
    {
      "sampler": 0,
      "source": 2
    },
    {
      "sampler": 0,
      "source": 3
    },
    {
      "sampler": 0,
      "source": 4
    },
    {
      "sampler": 0,
      "source": 5
    }
  ]
}
